HIERARCHY
ROOT hip
{
  OFFSET 0 0 0
  CHANNELS 6 Xposition Yposition Zposition Zrotation Yrotation Xrotation
  JOINT abdomen
  {
    OFFSET 0 20.6881 -0.73152
    CHANNELS 3 Zrotation Xrotation Yrotation
    JOINT chest
    {
      OFFSET 0 11.7043 -0.48768
      CHANNELS 3 Zrotation Xrotation Yrotation
      JOINT neck
      {
        OFFSET 0 22.1894 -2.19456
        CHANNELS 3 Zrotation Xrotation Yrotation
        JOINT head
        {
          OFFSET -0.24384 7.07133 1.2192
          CHANNELS 3 Zrotation Xrotation Yrotation
          JOINT leftEye
          {
            OFFSET 4.14528 8.04674 8.04672
            CHANNELS 3 Zrotation Xrotation Yrotation
            End Site
            {
              OFFSET 1 0 0
            }
          }
          JOINT rightEye
          {
            OFFSET -3.6576 8.04674 8.04672
            CHANNELS 3 Zrotation Xrotation Yrotation
            End Site
            {
              OFFSET 1 0 0
            }
          }
        }
      }
      JOINT rCollar
      {
        OFFSET -2.68224 19.2634 -4.8768
        CHANNELS 3 Zrotation Xrotation Yrotation
        JOINT rShldr
        {
          OFFSET -8.77824 -1.95073 1.46304
          CHANNELS 3 Zrotation Xrotation Yrotation
          JOINT rForeArm
          {
            OFFSET -28.1742 -1.7115 0.48768
            CHANNELS 3 Zrotation Xrotation Yrotation
            JOINT rHand
            {
              OFFSET -22.5879 0.773209 7.07136
              CHANNELS 3 Zrotation Xrotation Yrotation
              JOINT rThumb1
              {
                OFFSET -1.2192 -0.487915 3.41376
                CHANNELS 3 Zrotation Xrotation Yrotation
                JOINT rThumb2
                {
                  OFFSET -3.37035 -0.52449 3.41376
                  CHANNELS 3 Zrotation Xrotation Yrotation
                  End Site
                  {
                    OFFSET -1.78271 -1.18214 1.43049
                  }
                }
              }
              JOINT rIndex1
              {
                OFFSET -7.75947 0.938293 5.60832
                CHANNELS 3 Zrotation Xrotation Yrotation
                JOINT rIndex2
                {
                  OFFSET -2.54057 -0.884171 1.56538
                  CHANNELS 3 Zrotation Xrotation Yrotation
                  End Site
                  {
                    OFFSET -1.62519 -0.234802 1.16502
                  }
                }
              }
              JOINT rMid1
              {
                OFFSET -8.24714 1.18213 3.41376
                CHANNELS 3 Zrotation Xrotation Yrotation
                JOINT rMid2
                {
                  OFFSET -3.10165 -0.590103 1.0647
                  CHANNELS 3 Zrotation Xrotation Yrotation
                  End Site
                  {
                    OFFSET -2.48547 -0.328903 0.83742
                  }
                }
              }
              JOINT rRing1
              {
                OFFSET -8.82822 0.546677 1.51678
                CHANNELS 3 Zrotation Xrotation Yrotation
                JOINT rRing2
                {
                  OFFSET -2.60934 -0.819778 -0.0198488
                  CHANNELS 3 Zrotation Xrotation Yrotation
                  End Site
                  {
                    OFFSET -2.33842 -0.294052 0.168128
                  }
                }
              }
              JOINT rPinky1
              {
                OFFSET -8.27202 -0.0477905 -0.4584
                CHANNELS 3 Zrotation Xrotation Yrotation
                JOINT rPinky2
                {
                  OFFSET -1.82734 -0.647385 -0.700984
                  CHANNELS 3 Zrotation Xrotation Yrotation
                  End Site
                  {
                    OFFSET -1.69225 -0.51767 -0.607171
                  }
                }
              }
            }
          }
        }
      }
      JOINT lCollar
      {
        OFFSET 2.68224 19.2634 -4.8768
        CHANNELS 3 Zrotation Xrotation Yrotation
        JOINT lShldr
        {
          OFFSET 8.77824 -1.95073 1.46304
          CHANNELS 3 Zrotation Xrotation Yrotation
          JOINT lForeArm
          {
            OFFSET 28.1742 -1.7115 0.48768
            CHANNELS 3 Zrotation Xrotation Yrotation
            JOINT lHand
            {
              OFFSET 22.5879 0.773209 7.07136
              CHANNELS 3 Zrotation Xrotation Yrotation
              JOINT lThumb1
              {
                OFFSET 1.2192 -0.487915 3.41376
                CHANNELS 3 Zrotation Xrotation Yrotation
                JOINT lThumb2
                {
                  OFFSET 3.37035 -0.52449 3.41376
                  CHANNELS 3 Zrotation Xrotation Yrotation
                  End Site
                  {
                    OFFSET 1.78271 -1.18214 1.43049
                  }
                }
              }
              JOINT lIndex1
              {
                OFFSET 7.75947 0.938293 5.60832
                CHANNELS 3 Zrotation Xrotation Yrotation
                JOINT lIndex2
                {
                  OFFSET 2.54057 -0.884171 1.56538
                  CHANNELS 3 Zrotation Xrotation Yrotation
                  End Site
                  {
                    OFFSET 1.62519 -0.234802 1.16502
                  }
                }
              }
              JOINT lMid1
              {
                OFFSET 8.24714 1.18213 3.41376
                CHANNELS 3 Zrotation Xrotation Yrotation
                JOINT lMid2
                {
                  OFFSET 3.10165 -0.590103 1.0647
                  CHANNELS 3 Zrotation Xrotation Yrotation
                  End Site
                  {
                    OFFSET 2.48547 -0.328903 0.83742
                  }
                }
              }
              JOINT lRing1
              {
                OFFSET 8.82822 0.546677 1.51678
                CHANNELS 3 Zrotation Xrotation Yrotation
                JOINT lRing2
                {
                  OFFSET 2.60934 -0.819778 -0.0198488
                  CHANNELS 3 Zrotation Xrotation Yrotation
                  End Site
                  {
                    OFFSET 2.33842 -0.294052 0.168128
                  }
                }
              }
              JOINT lPinky1
              {
                OFFSET 8.27202 -0.0477905 -0.4584
                CHANNELS 3 Zrotation Xrotation Yrotation
                JOINT lPinky2
                {
                  OFFSET 1.82734 -0.647385 -0.700984
                  CHANNELS 3 Zrotation Xrotation Yrotation
                  End Site
                  {
                    OFFSET 1.69225 -0.51767 -0.607171
                  }
                }
              }
            }
          }
        }
      }
    }
  }
  JOINT rButtock
  {
    OFFSET -8.77824 4.35084 1.2192
    CHANNELS 3 Zrotation Xrotation Yrotation
    JOINT rThigh
    {
      OFFSET 0 -1.70687 -2.19456
      CHANNELS 3 Zrotation Xrotation Yrotation
      JOINT rShin
      {
        OFFSET 0 -36.8199 0.73152
        CHANNELS 3 Zrotation Xrotation Yrotation
        JOINT rFoot
        {
          OFFSET 0.73152 -45.1104 -5.12064
          CHANNELS 3 Zrotation Xrotation Yrotation
          End Site
          {
            OFFSET -1.1221 -3.69964 12.103
          }
        }
      }
    }
  }
  JOINT lButtock
  {
    OFFSET 8.77824 4.35084 1.2192
    CHANNELS 3 Zrotation Xrotation Yrotation
    JOINT lThigh
    {
      OFFSET 0 -1.70687 -2.19456
      CHANNELS 3 Zrotation Xrotation Yrotation
      JOINT lShin
      {
        OFFSET 0 -36.8199 0.73152
        CHANNELS 3 Zrotation Xrotation Yrotation
        JOINT lFoot
        {
          OFFSET -0.73152 -45.1104 -5.12064
          CHANNELS 3 Zrotation Xrotation Yrotation
          End Site
          {
            OFFSET 1.1221 -3.69964 12.103
          }
        }
      }
    }
  }
}
MOTION
Frames:	9
Frame Time:	0.00833333
280.548 83.4871 -123.854 0.0 0.0 0.0 -2.59965 0.000366012 -0.0702751 -0.716706 0.0122901 -0.12403 6.70867e-15 -7.95139e-16 1.98785e-16 1.92355e-14 3.18055e-15 3.94463e-16 -0.0 0.0 0.0 -0.0 0.0 0.0 3.12954e-15 -1.63066e-17 2.98177e-16 6.95708e-14 -2.42269e-16 3.37934e-15 1.15375e-12 -3.61589e-13 5.08889e-14 1.33122e-11 2.94847e-13 4.29375e-13 3.13816e-11 -1.44749e-13 1.07503e-12 5.41919e-11 -2.54444e-13 1.84631e-12 3.13865e-11 -1.43125e-13 1.06231e-12 7.73091 5.47488 0.417314 3.13828e-11 -1.44516e-13 1.07185e-12 2.90554 0.965183 0.102902 3.13883e-11 -1.44914e-13 1.07264e-12 10.2786 0.731801 0.0259123 3.13736e-11 -1.4233e-13 1.08139e-12 2.22167 -0.733487 -0.20892 2.93358e-15 -1.51418e-17 -9.93923e-17 6.76313e-14 -2.48481e-16 1.59028e-15 1.16627e-12 3.35151e-13 3.18055e-14 1.32952e-11 -4.11459e-13 4.80264e-13 3.1379e-11 -1.65939e-13 1.07821e-12 5.4203e-11 -2.8943e-13 1.86778e-12 3.13734e-11 -1.65389e-13 1.08775e-12 -7.73091 5.47488 -0.417314 3.13794e-11 -1.65687e-13 1.08139e-12 -2.90554 0.965183 -0.102902 3.13778e-11 -1.66085e-13 1.079e-12 -10.2786 0.731801 -0.0259123 3.13877e-11 -1.63003e-13 1.07185e-12 -2.22167 -0.733487 0.20892 -2.03217e-16 0.0 -3.88251e-19 -1.50074 -1.93106 0.0077669 -0.00872248 -2.07863 -0.0717226 -0.47278 3.99921 0.134528 2.03217e-16 0.0 3.88251e-19 -2.45035 -8.43848 0.261203 -0.00685743 9.70811 -0.175602 0.523123 -1.28002 -0.0328243
275.004 82.1976 -134.063 -162.659 -65.6222 164.627 -2.28325 1.62225 0.530602 -1.45526 1.26045 0.0463483 2.20218 3.42573 2.31208 -4.3351 -4.47966 3.76055 -0.0 0.0 0.0 -0.0 0.0 0.0 6.94983e-14 -5.45249e-13 -2.25887e-13 22.8438 4.05405 0.737476 -3.96893 -1.75617 6.24936 0.00175343 0.931584 0.130864 3.26615e-10 3.00081e-09 -1.61066e-09 5.58854e-10 5.19561e-09 -2.78718e-09 3.26623e-10 3.00081e-09 -1.61067e-09 7.73091 5.47488 0.417314 3.26616e-10 3.00081e-09 -1.61066e-09 2.90554 0.965183 0.102902 3.26622e-10 3.00081e-09 -1.61066e-09 10.2786 0.731801 0.0259123 3.26608e-10 3.00081e-09 -1.61065e-09 2.22167 -0.733487 -0.20892 6.93609e-14 -5.45254e-13 -2.26244e-13 -19.9779 7.61854 -4.79955 5.06963 -2.50122 -7.69364 -0.074983 -6.08343 0.837692 4.37519e-10 -4.98808e-10 -3.78486e-10 7.65918e-10 -8.65367e-10 -6.4971e-10 4.37514e-10 -4.98809e-10 -3.7848e-10 -7.73091 5.47488 -0.417314 4.37519e-10 -4.98808e-10 -3.78483e-10 -2.90554 0.965183 -0.102902 4.37519e-10 -4.98808e-10 -3.78487e-10 -10.2786 0.731801 -0.0259123 4.37527e-10 -4.98804e-10 -3.78495e-10 -2.22167 -0.733487 0.20892 -2.03217e-16 0.0 -3.88251e-19 -1.94516 -7.18986 3.77469 -0.00599102 8.90136 0.0795467 -0.372435 -0.207714 1.55144 2.03217e-16 0.0 3.88251e-19 -0.33509 -10.4723 4.83682 -0.0164224 16.2127 -0.281828 0.0554889 -5.34402 -3.81531
274.822 82.213 -134.199 -162.362 -66.4301 164.128 -1.97904 3.3396 1.16608 -2.24465 2.58069 0.22638 4.23033 7.03052 4.7898 -8.27918 -9.14846 7.82334 -0.0 0.0 0.0 -0.0 0.0 0.0 1.45259e-13 -1.14765e-12 -4.66588e-13 46.8807 8.32691 1.52232 -7.74664 -3.54019 12.8681 -0.001038 1.9246 0.270475 5.95592e-10 6.24879e-09 -3.35341e-09 1.01771e-09 1.08189e-08 -5.80274e-09 5.95602e-10 6.24879e-09 -3.35341e-09 7.73091 5.47488 0.417314 5.95593e-10 6.24879e-09 -3.3534e-09 2.90554 0.965183 0.102902 5.95599e-10 6.24879e-09 -3.35341e-09 10.2786 0.731801 0.0259123 5.95586e-10 6.24879e-09 -3.3534e-09 2.22167 -0.733487 -0.20892 1.45184e-13 -1.14766e-12 -4.66902e-13 -39.6675 15.5179 -10.1605 9.73386 -5.01705 -15.918 0.0436368 -12.5323 1.75835 8.23433e-10 -1.02806e-09 -7.8942e-10 1.44353e-09 -1.78357e-09 -1.35588e-09 8.2343e-10 -1.02806e-09 -7.89419e-10 -7.73091 5.47488 -0.417314 8.23434e-10 -1.02806e-09 -7.89417e-10 -2.90554 0.965183 -0.102902 8.23436e-10 -1.02805e-09 -7.89422e-10 -10.2786 0.731801 -0.0259123 8.2344e-10 -1.02805e-09 -7.89431e-10 -2.22167 -0.733487 0.20892 -2.03217e-16 0.0 -3.88251e-19 -1.64596 -12.6592 7.88472 -0.0692008 20.5041 0.253657 -0.0393357 -4.6886 3.04807 2.03217e-16 0.0 3.88251e-19 2.2594 -12.5181 9.75249 0.00228269 23.0906 -0.406287 -1.02354 -9.58421 -7.86005
274.776 82.2046 -134.346 -162.391 -66.9216 164.147 -1.7528 4.86401 1.73798 -2.95468 3.75667 0.387905 5.76801 10.2097 7.03579 -11.2134 -13.2045 11.5567 -0.0 0.0 0.0 -0.0 0.0 0.0 2.02236e-13 -1.63571e-12 -6.78258e-13 68.2123 12.154 2.25752 -10.7766 -5.0183 18.814 -0.00751898 2.79469 0.393007 9.17083e-10 9.00272e-09 -4.83412e-09 1.56818e-09 1.55873e-08 -8.36524e-09 9.17095e-10 9.00272e-09 -4.83412e-09 7.73091 5.47488 0.417314 9.17084e-10 9.00272e-09 -4.83411e-09 2.90554 0.965183 0.102902 9.17089e-10 9.00272e-09 -4.83412e-09 10.2786 0.731801 0.0259123 9.17077e-10 9.00272e-09 -4.83412e-09 2.22167 -0.733487 -0.20892 2.02216e-13 -1.63573e-12 -6.78534e-13 -55.8919 22.189 -15.44 13.2419 -6.96365 -23.2402 0.332516 -18.2343 2.63113 1.2498e-09 -1.49609e-09 -1.13762e-09 2.18935e-09 -2.59552e-09 -1.95287e-09 1.2498e-09 -1.4961e-09 -1.13762e-09 -7.73091 5.47488 -0.417314 1.2498e-09 -1.49609e-09 -1.13761e-09 -2.90554 0.965183 -0.102902 1.2498e-09 -1.49609e-09 -1.13762e-09 -10.2786 0.731801 -0.0259123 1.2498e-09 -1.49609e-09 -1.13763e-09 -2.22167 -0.733487 0.20892 -2.03217e-16 0.0 -3.88251e-19 -0.688115 -17.4036 11.7651 -0.195352 30.8606 0.441647 0.456946 -8.59637 4.43583 2.03217e-16 0.0 3.88251e-19 4.88428 -14.2206 14.1951 0.0481029 29.2212 -0.533591 -2.51571 -13.2393 -11.6441
274.723 82.1987 -134.509 -161.874 -67.6132 163.642 -1.64913 5.90802 2.14549 -3.45064 4.5721 0.502361 6.67881 12.39 8.60682 -12.9043 -15.9545 14.2034 -0.0 0.0 0.0 -0.0 0.0 0.0 2.12253e-13 -1.83795e-12 -8.17353e-13 83.002 14.874 2.8273 -12.7217 -5.96779 23.0157 -0.0138461 3.35757 0.472421 1.36986e-09 1.05215e-08 -5.65972e-09 2.34768e-09 1.82185e-08 -9.79505e-09 1.36987e-09 1.05215e-08 -5.65972e-09 7.73091 5.47488 0.417314 1.36986e-09 1.05215e-08 -5.65971e-09 2.90554 0.965183 0.102902 1.36986e-09 1.05215e-08 -5.65973e-09 10.2786 0.731801 0.0259123 1.36985e-09 1.05215e-08 -5.65972e-09 2.22167 -0.733487 -0.20892 2.12266e-13 -1.83797e-12 -8.17601e-13 -66.4159 26.4295 -19.5024 15.2707 -8.02682 -28.1475 0.638114 -22.0848 3.26903 1.77729e-09 -1.81111e-09 -1.32896e-09 3.1057e-09 -3.14185e-09 -2.27689e-09 1.77729e-09 -1.81111e-09 -1.32896e-09 -7.73091 5.47488 -0.417314 1.77729e-09 -1.81111e-09 -1.32896e-09 -2.90554 0.965183 -0.102902 1.77729e-09 -1.8111e-09 -1.32897e-09 -10.2786 0.731801 -0.0259123 1.7773e-09 -1.8111e-09 -1.32898e-09 -2.22167 -0.733487 0.20892 -2.03217e-16 0.0 -3.88251e-19 0.38438 -20.6169 14.6559 -0.335766 38.1026 0.606141 0.913841 -11.0965 5.49095 2.03217e-16 0.0 3.88251e-19 6.88873 -15.3309 17.2946 0.0992232 33.4842 -0.635117 -3.89104 -15.6418 -14.5355
274.664 82.1918 -134.658 -161.557 -68.2878 163.314 -1.68513 6.28026 2.31825 -3.63836 4.88232 0.550174 6.96722 13.23 9.16842 -13.4204 -17.0544 15.1557 -0.0 0.0 0.0 -0.0 0.0 0.0 1.4555e-13 -1.63461e-12 -8.74409e-13 88.7359 16.0468 3.13626 -13.4768 -6.33899 24.735 -0.0159344 3.49273 0.491524 2.21234e-09 1.04211e-08 -5.52619e-09 3.8039e-09 1.80488e-08 -9.56739e-09 2.21235e-09 1.04211e-08 -5.52619e-09 7.73091 5.47488 0.417314 2.21234e-09 1.04211e-08 -5.52618e-09 2.90554 0.965183 0.102902 2.21235e-09 1.04211e-08 -5.52619e-09 10.2786 0.731801 0.0259123 2.21234e-09 1.04211e-08 -5.52619e-09 2.22167 -0.733487 -0.20892 1.45565e-13 -1.63462e-12 -8.74649e-13 -70.4174 27.7661 -21.1523 15.7912 -8.20909 -29.5913 0.767643 -23.3709 3.49474 2.62964e-09 -1.94178e-09 -1.40859e-09 4.57872e-09 -3.3683e-09 -2.40267e-09 2.62964e-09 -1.94178e-09 -1.40858e-09 -7.73091 5.47488 -0.417314 2.62964e-09 -1.94178e-09 -1.40858e-09 -2.90554 0.965183 -0.102902 2.62964e-09 -1.94178e-09 -1.40859e-09 -10.2786 0.731801 -0.0259123 2.62965e-09 -1.94178e-09 -1.4086e-09 -2.22167 -0.733487 0.20892 -2.03217e-16 0.0 -3.88251e-19 0.89445 -21.8994 15.8884 -0.407035 40.976 0.680157 1.11589 -11.6104 6.06659 2.03217e-16 0.0 3.88251e-19 7.7268 -15.7704 18.4397 0.123419 35.1315 -0.678531 -4.57765 -16.4404 -16.0226
274.618 82.1814 -134.809 -161.256 -68.9448 163.021 -1.81331 6.1731 2.32226 -3.60434 4.83172 0.550216 6.87394 13.1249 8.99007 -13.2349 -17.0201 14.846 -0.0 0.0 0.0 -0.0 0.0 0.0 2.45702e-14 -1.14182e-12 -8.71935e-13 88.0296 16.1163 3.24877 -13.4569 -6.34544 24.6716 -0.014315 3.32228 0.467474 3.32339e-09 9.1588e-09 -4.70956e-09 5.72654e-09 1.58695e-08 -8.15924e-09 3.3234e-09 9.1588e-09 -4.70957e-09 7.73091 5.47488 0.417314 3.32338e-09 9.1588e-09 -4.70956e-09 2.90554 0.965183 0.102902 3.32339e-09 9.15881e-09 -4.70957e-09 10.2786 0.731801 0.0259123 3.32338e-09 9.15881e-09 -4.70956e-09 2.22167 -0.733487 -0.20892 2.45654e-14 -1.14182e-12 -8.7218e-13 -70.1076 27.1719 -20.8847 15.3255 -7.84044 -28.5475 0.725198 -22.8276 3.4022 3.70531e-09 -1.93937e-09 -1.40328e-09 6.43423e-09 -3.36379e-09 -2.37808e-09 3.70531e-09 -1.93937e-09 -1.40326e-09 -7.73091 5.47488 -0.417314 3.70531e-09 -1.93937e-09 -1.40327e-09 -2.90554 0.965183 -0.102902 3.70531e-09 -1.93937e-09 -1.40328e-09 -10.2786 0.731801 -0.0259123 3.70532e-09 -1.93936e-09 -1.40329e-09 -2.22167 -0.733487 0.20892 -2.03217e-16 0.0 -3.88251e-19 0.822679 -21.8637 15.8538 -0.400751 40.7298 0.668041 1.08221 -10.7138 6.28423 2.03217e-16 0.0 3.88251e-19 7.66409 -15.7717 18.1695 0.118979 34.9105 -0.673623 -4.63783 -16.142 -16.4603
274.57 82.17 -134.962 -160.944 -69.6024 162.716 -1.97773 5.87517 2.2601 -3.48402 4.63759 0.531394 6.65144 12.6212 8.51282 -12.7965 -16.5023 14.0192 -0.0 0.0 0.0 -0.0 0.0 0.0 -1.00559e-13 -5.41933e-13 -8.1434e-13 84.7519 15.7491 3.28005 -13.1321 -6.2095 23.8988 -0.0114848 3.02579 0.425655 4.2124e-09 7.25591e-09 -3.68688e-09 7.26602e-09 1.25801e-08 -6.39363e-09 4.2124e-09 7.25591e-09 -3.68689e-09 7.73091 5.47488 0.417314 4.21239e-09 7.2559e-09 -3.68687e-09 2.90554 0.965183 0.102902 4.2124e-09 7.25591e-09 -3.68688e-09 10.2786 0.731801 0.0259123 4.21239e-09 7.25591e-09 -3.68688e-09 2.22167 -0.733487 -0.20892 -1.0059e-13 -5.41921e-13 -8.14592e-13 -68.0587 25.7762 -19.8503 14.4294 -7.22898 -26.5124 0.618207 -21.5265 3.18143 4.57705e-09 -1.83587e-09 -1.19141e-09 7.93403e-09 -3.1837e-09 -1.99913e-09 4.57705e-09 -1.83587e-09 -1.19137e-09 -7.73091 5.47488 -0.417314 4.57706e-09 -1.83587e-09 -1.1914e-09 -2.90554 0.965183 -0.102902 4.57705e-09 -1.83588e-09 -1.19141e-09 -10.2786 0.731801 -0.0259123 4.57706e-09 -1.83587e-09 -1.19142e-09 -2.22167 -0.733487 0.20892 -2.03217e-16 0.0 -3.88251e-19 0.51328 -21.2832 15.2979 -0.36392 39.2497 0.622095 0.939358 -9.30885 6.30311 2.03217e-16 0.0 3.88251e-19 7.23726 -15.5925 17.3246 0.103257 33.9444 -0.64892 -4.43208 -15.4086 -16.4681
274.522 82.1578 -135.117 -160.671 -70.2395 162.445 -2.12277 5.67507 2.23432 -3.41294 4.51716 0.522623 6.55325 12.2663 8.17772 -12.5517 -16.1529 13.4229 -0.0 0.0 0.0 -0.0 0.0 0.0 -1.79708e-13 -1.73038e-14 -7.06033e-13 82.7626 15.611 3.34831 -12.9637 -6.14796 23.4915 -0.00950727 2.78283 0.391412 4.38878e-09 5.23364e-09 -2.93517e-09 7.57273e-09 9.08027e-09 -5.09362e-09 4.38879e-09 5.23364e-09 -2.93518e-09 7.73091 5.47488 0.417314 4.38877e-09 5.23363e-09 -2.93517e-09 2.90554 0.965183 0.102902 4.38879e-09 5.23364e-09 -2.93517e-09 10.2786 0.731801 0.0259123 4.38877e-09 5.23364e-09 -2.93517e-09 2.22167 -0.733487 -0.20892 -1.79756e-13 -1.72853e-14 -7.06282e-13 -66.8652 24.7123 -19.1802 13.71 -6.72283 -24.9725 0.547032 -20.5399 3.01845 4.81763e-09 -1.66333e-09 -6.51359e-10 8.33995e-09 -2.88341e-09 -1.06179e-09 4.81762e-09 -1.66333e-09 -6.51317e-10 -7.73091 5.47488 -0.417314 4.81763e-09 -1.66333e-09 -6.51349e-10 -2.90554 0.965183 -0.102902 4.81762e-09 -1.66333e-09 -6.51359e-10 -10.2786 0.731801 -0.0259123 4.81763e-09 -1.66333e-09 -6.51365e-10 -2.22167 -0.733487 0.20892 -2.03217e-16 0.0 -3.88251e-19 0.330201 -20.9243 14.9762 -0.344612 38.4214 0.595582 0.824539 -8.29588 6.27958 2.03217e-16 0.0 3.88251e-19 6.98596 -15.4905 16.747 0.0939899 33.3561 -0.63321 -4.34508 -14.8886 -16.6699
